<?xml version="1.0" encoding="utf-8"?>
<!-- Generator: Adobe Illustrator 16.0.0, SVG Export Plug-In . SVG Version: 6.00 Build 0)  -->
<!DOCTYPE svg PUBLIC "-//W3C//DTD SVG 1.1//EN" "http://www.w3.org/Graphics/SVG/1.1/DTD/svg11.dtd">
<svg version="1.1" xmlns="http://www.w3.org/2000/svg" xmlns:xlink="http://www.w3.org/1999/xlink" x="0px" y="0px" width="60px"
	 height="60px" viewBox="0 0 60 60" enable-background="new 0 0 60 60" xml:space="preserve">
<g id="Layer_1">
	<circle stroke="#FFFFFF" stroke-width="1" fill="#26C9A6" cx="30" cy="30" r="29.243"/>
</g>
<g id="Layer_2">
	<path fill="#FFFFFF" d="M21.61,31.613l-0.986-1.069c-0.417-0.453-0.417-1.183,0-1.631l8.624-9.348c0.418-0.453,1.093-0.453,1.505,0
		l8.623,9.343c0.418,0.453,0.418,1.183,0,1.63l-0.984,1.069c-0.422,0.457-1.109,0.448-1.523-0.019l-5.091-5.792v13.821
		c0,0.641-0.474,1.155-1.063,1.155h-1.422c-0.589,0-1.064-0.515-1.064-1.155V25.798l-5.096,5.797
		C22.719,32.065,22.031,32.074,21.61,31.613z"/>
</g>
</svg>
